<svg id="Ebene_2" data-name="Ebene 2" xmlns="http://www.w3.org/2000/svg" viewBox="0 0 404 89.22"><defs><style>.cls-1{fill:#00404b;}.cls-2{fill:#d31316;}.cls-3{fill:#d41317;}</style></defs><title>KIN_Logo_2018_rgb</title><path class="cls-1" d="M103.82,420.94a36.26,36.26,0,0,1,.74-7.34h0l-8-1.65h0c-.12.6-.22,1.2-.32,1.81-.14.87-.26,1.74-.35,2.62-.15,1.5-.23,3-.23,4.56h8.18Z" transform="translate(-95.64 -376.34)"/><path class="cls-1" d="M103.86,423.09l-8.14.48h0c0,.53.08,1.06.13,1.59,0,.14,0,.28,0,.42,0,.4.1.79.15,1.19s.1.78.16,1.18c0,.14,0,.28.07.41.24,1.38.53,2.76.9,4.13l7.87-2.11h0a37.12,37.12,0,0,1-1.17-7.28Z" transform="translate(-95.64 -376.34)"/><path class="cls-1" d="M142.54,376.39c-.76,0-1.52-.05-2.29-.05h0v8.17a37,37,0,0,1,7.34.74v0l1.65-8A46.13,46.13,0,0,0,142.54,376.39Z" transform="translate(-95.64 -376.34)"/><path class="cls-1" d="M115.71,383.7h0l-.27.19c-.21.13-.4.28-.6.42-.4.27-.79.54-1.17.83-.23.16-.45.34-.67.51s-.7.54-1,.82l-.86.74-.79.68c-.53.49-1.06,1-1.58,1.5l0,0h0l5.77,5.77h0a36.73,36.73,0,0,1,5.72-4.66l0,0Z" transform="translate(-95.64 -376.34)"/><path class="cls-1" d="M100.37,401h0c0,.09-.09.19-.13.28-.22.44-.42.88-.62,1.33-.09.19-.18.38-.26.57-.26.58-.5,1.18-.73,1.77a1.19,1.19,0,0,1-.08.2c-.52,1.4-1,2.83-1.38,4.3l7.87,2.11h0a36.27,36.27,0,0,1,2.63-6.9h0Z" transform="translate(-95.64 -376.34)"/><path class="cls-1" d="M137.62,376.42v0l-1.58.14-.43,0c-.4,0-.79.09-1.18.15s-.79.09-1.19.16l-.41.07c-1.38.23-2.75.53-4.13.9l2.11,7.87v0a37.12,37.12,0,0,1,7.28-1.17v0Z" transform="translate(-95.64 -376.34)"/><path class="cls-1" d="M106.91,391.32h0c-.28.32-.55.65-.82,1l-.34.39c-.28.35-.56.71-.83,1.07s-.4.51-.59.77l-.56.79c-.27.38-.53.76-.78,1.15l-.36.54c-.3.48-.6,1-.89,1.47a1.63,1.63,0,0,1-.11.17h0l7.06,4.08h0a37,37,0,0,1,4.32-6l0,0Z" transform="translate(-95.64 -376.34)"/><path class="cls-1" d="M126.18,378.61h0l-.43.16c-.48.16-1,.33-1.43.52l-.54.21-1.59.66-.39.18c-.56.26-1.12.52-1.68.81l-.33.16c-.55.29-1.1.59-1.64.9l-.21.11h0l4.08,7.05v0a35.78,35.78,0,0,1,6.73-3v0Z" transform="translate(-95.64 -376.34)"/><path class="cls-2" d="M205.66,405.29a1.14,1.14,0,0,1,1.15-1.16h5.62a1.17,1.17,0,0,1,1.15,1.16v12.62l10.66-13.3a1.41,1.41,0,0,1,.91-.48h6a1.11,1.11,0,0,1,.86,1.78L220.83,420l12.24,15.94a1.13,1.13,0,0,1-.91,1.78h-6.63a1.27,1.27,0,0,1-.86-.34l-11.09-15.07v14.3a1.17,1.17,0,0,1-1.15,1.16h-5.62a1.14,1.14,0,0,1-1.15-1.16Z" transform="translate(-95.64 -376.34)"/><path class="cls-2" d="M238.7,405.05a1,1,0,0,1,.92-.92h5.76a1,1,0,0,1,.91.92v31.77a1,1,0,0,1-.91.92h-5.76a1,1,0,0,1-.92-.92Z" transform="translate(-95.64 -376.34)"/><path class="cls-2" d="M255,404.52a.91.91,0,0,1,.91-.87h1.2l19.15,18.44h.05v-17a.92.92,0,0,1,.91-.92H283a1,1,0,0,1,.91.92v32.3a.91.91,0,0,1-.91.87h-.77a1.51,1.51,0,0,1-.63-.24l-19-19.06h-.05v17.9a.92.92,0,0,1-.91.92H256a1,1,0,0,1-.91-.92Z" transform="translate(-95.64 -376.34)"/><path class="cls-2" d="M292.19,405.05a.92.92,0,0,1,.91-.92H313a.92.92,0,0,1,.91.92v5.23a.91.91,0,0,1-.91.91h-13.3v5.95h10.94a1,1,0,0,1,.92.91v5.24a.92.92,0,0,1-.92.91H299.68v6.48H313a.91.91,0,0,1,.91.91v5.23a.92.92,0,0,1-.91.92H293.1a.92.92,0,0,1-.91-.92Z" transform="translate(-95.64 -376.34)"/><path class="cls-2" d="M325.46,404.42a.92.92,0,0,1,.87-.77h.77a1.07,1.07,0,0,1,.81.48l11.14,20.74h.1l11.13-20.74a1.1,1.1,0,0,1,.82-.48h.77a.92.92,0,0,1,.86.77l5.43,32.26a.89.89,0,0,1-.92,1.06h-5.66a1,1,0,0,1-.91-.77l-2.16-14.84h-.1l-8.06,15.56a1.14,1.14,0,0,1-.82.53h-.86a1,1,0,0,1-.82-.53l-8.11-15.56h-.1L327.53,437a.94.94,0,0,1-.91.77H321a.88.88,0,0,1-.91-1.06Z" transform="translate(-95.64 -376.34)"/><path class="cls-2" d="M362,436.49l15-32.31a1,1,0,0,1,.82-.53h.48a1,1,0,0,1,.81.53l15,32.31a.85.85,0,0,1-.82,1.25H388c-.86,0-1.24-.29-1.68-1.2l-1.72-3.8H371.51l-1.73,3.84a1.79,1.79,0,0,1-1.73,1.16h-5.28A.85.85,0,0,1,362,436.49Zm19.74-10.27L378,418.29H378l-3.6,7.93Z" transform="translate(-95.64 -376.34)"/><path class="cls-2" d="M400.74,411.19h-6.87a.91.91,0,0,1-.91-.91v-5.23a.92.92,0,0,1,.91-.92h21.31a.92.92,0,0,1,.92.92v5.23a.92.92,0,0,1-.92.91h-6.86v25.63a1,1,0,0,1-.91.92h-5.76a1,1,0,0,1-.91-.92Z" transform="translate(-95.64 -376.34)"/><path class="cls-2" d="M421.77,405.05a1,1,0,0,1,.91-.92h5.76a1,1,0,0,1,.92.92v31.77a1,1,0,0,1-.92.92h-5.76a1,1,0,0,1-.91-.92Z" transform="translate(-95.64 -376.34)"/><path class="cls-2" d="M452.36,403.65A16.13,16.13,0,0,1,464,408.12a.88.88,0,0,1,0,1.34l-3.74,3.89a.83.83,0,0,1-1.2,0,9.84,9.84,0,0,0-6.48-2.45c-5.43,0-9.41,4.51-9.41,9.89a9.51,9.51,0,0,0,9.46,9.75,10.16,10.16,0,0,0,6.43-2.31.94.94,0,0,1,1.25,0l3.74,4a1,1,0,0,1-.05,1.3,16.46,16.46,0,0,1-11.66,4.66,17.29,17.29,0,1,1,0-34.57Z" transform="translate(-95.64 -376.34)"/><path class="cls-2" d="M467.38,436.49l15-32.31a1,1,0,0,1,.82-.53h.48a1,1,0,0,1,.82.53l15,32.31a.85.85,0,0,1-.81,1.25H493.4c-.87,0-1.25-.29-1.68-1.2l-1.73-3.8H476.93l-1.73,3.84a1.78,1.78,0,0,1-1.72,1.16H468.2A.85.85,0,0,1,467.38,436.49Zm19.73-10.27-3.65-7.93h0l-3.6,7.93Z" transform="translate(-95.64 -376.34)"/><path class="cls-3" d="M122.74,401.28a1,1,0,0,0-1,1v37.41a1,1,0,0,0,1,1h8.65a1,1,0,0,0,1-1V402.25a1,1,0,0,0-1-1Z" transform="translate(-95.64 -376.34)"/><path class="cls-2" d="M147.21,421.79a1.69,1.69,0,0,1,0-1.67l11-18s.51-.83-.47-.83H148.4a1.85,1.85,0,0,0-1.48.83l-11,18a1.69,1.69,0,0,0,0,1.67l11,18a1.86,1.86,0,0,0,1.48.83h9.37s1,0,.47-.83Z" transform="translate(-95.64 -376.34)"/><path class="cls-2" d="M184.77,418.32q0-.79-.12-1.59l0-.42c0-.4-.1-.79-.15-1.18s-.1-.79-.17-1.19c0-.14-.05-.28-.07-.41-.11-.65-.23-1.28-.37-1.91,0-.2-.08-.39-.13-.58-.1-.43-.2-.87-.31-1.29,0-.12,0-.24-.08-.35h0c-.23-.85-.47-1.69-.75-2.52l-.15-.44c-.16-.47-.33-.95-.51-1.42l-.22-.55c-.21-.53-.43-1.06-.66-1.58l-.18-.4c-.26-.56-.52-1.11-.8-1.67-.06-.11-.12-.22-.17-.33-.29-.55-.59-1.1-.9-1.64l-.12-.21c-.43-.76-.89-1.5-1.37-2.23l-.18-.28c-.14-.21-.29-.41-.43-.61-.27-.39-.54-.78-.82-1.16l-.52-.68c-.27-.34-.54-.69-.82-1s-.49-.57-.74-.86l-.68-.79c-.48-.53-1-1.06-1.5-1.58l0,0h0c-.62-.62-1.26-1.21-1.92-1.79l-1-.85-.39-.33-1.07-.83-.77-.59c-.26-.19-.52-.38-.79-.56l-1.15-.79-.54-.35c-.48-.3-1-.6-1.47-.89l-.17-.11h0l-4.08,7.05a36.1,36.1,0,0,1,6,4.33c.53.47,1.06,1,1.57,1.47a36.62,36.62,0,0,1,4.66,5.72c.39.6.77,1.21,1.13,1.83a37.1,37.1,0,0,1,3,6.73c.22.68.43,1.36.61,2.06a36.38,36.38,0,0,1,1.18,7.29c0,.71.07,1.42.07,2.14a36.29,36.29,0,0,1-.75,7.35c-.14.71-.31,1.4-.5,2.09a36.24,36.24,0,0,1-2.62,6.9c-.32.64-.67,1.27-1,1.89a36.52,36.52,0,0,1-4.33,6c-.47.53-1,1.06-1.46,1.56a36.2,36.2,0,0,1-5.73,4.67c-.6.39-1.21.77-1.83,1.12a35.78,35.78,0,0,1-6.73,3c-.68.23-1.36.44-2.06.62a36.38,36.38,0,0,1-7.29,1.18c-.71,0-1.42.06-2.14.06h0a36.29,36.29,0,0,1-7.35-.74c-.71-.14-1.4-.31-2.09-.5a36.24,36.24,0,0,1-6.9-2.62c-.64-.33-1.27-.67-1.89-1a35.88,35.88,0,0,1-6-4.32c-.53-.47-1.06-1-1.56-1.47A37.26,37.26,0,0,1,109.8,441l-6.8,4.48.18.28c.13.21.28.41.42.61.27.39.54.78.83,1.16l.51.67c.27.35.54.7.82,1s.49.57.74.86l.68.79c.48.53,1,1.05,1.48,1.56a.08.08,0,0,1,0,0h0c.62.62,1.27,1.21,1.92,1.79l1,.85.39.33,1.07.83.77.59.79.56,1.15.79.54.35c.49.3,1,.6,1.47.89l.17.11h0c.76.44,1.53.86,2.32,1.25l.27.14c.44.22.88.42,1.33.63l.57.26c.59.25,1.18.49,1.78.72l.19.08c.68.25,1.36.49,2,.71l.24.08c.65.21,1.31.4,2,.58h0c.84.23,1.69.44,2.56.62a45.82,45.82,0,0,0,6.69.85c.76,0,1.53.05,2.3.05h0c.88,0,1.75,0,2.62-.08q.81,0,1.59-.12l.42,0c.4,0,.79-.09,1.19-.15s.79-.09,1.18-.16l.42-.07c.64-.11,1.28-.23,1.91-.37l.57-.13,1.3-.31c.11,0,.23-.05.34-.09h0q1.28-.34,2.52-.75l.44-.15c.47-.16.95-.33,1.43-.52l.54-.21c.53-.21,1.06-.43,1.58-.66l.4-.18c.56-.26,1.11-.52,1.67-.8l.33-.18c.55-.28,1.1-.58,1.65-.89l.2-.11h0c.76-.44,1.51-.89,2.24-1.38l.28-.18c.2-.13.4-.28.6-.42.39-.27.78-.54,1.17-.83.22-.16.44-.34.66-.51s.7-.54,1-.82l.86-.73.79-.69c.53-.48,1.05-1,1.56-1.48l0,0h0c.62-.62,1.21-1.26,1.8-1.92l.84-1,.33-.39c.29-.35.56-.71.83-1.07s.4-.51.59-.77l.56-.79c.27-.38.53-.76.79-1.15l.35-.54c.3-.48.6-1,.89-1.47a1.63,1.63,0,0,0,.11-.17h0c.44-.76.86-1.53,1.25-2.31l.15-.28c.21-.44.42-.88.62-1.33.08-.19.17-.38.26-.57q.38-.88.72-1.77c0-.07.06-.14.08-.2.26-.68.49-1.36.71-2,0-.08.05-.16.08-.23.21-.66.4-1.32.58-2l0-.05h0c.23-.84.44-1.69.62-2.55h0c.15-.73.28-1.46.39-2.2a44.89,44.89,0,0,0,.52-6.8C184.86,420.06,184.82,419.19,184.77,418.32Z" transform="translate(-95.64 -376.34)"/></svg>