<svg width="192" height="29" viewBox="0 0 192 29" fill="none" xmlns="http://www.w3.org/2000/svg">
<g id="logo">
<path id="Vector" d="M38.5742 7.66411H43.2896C43.9248 7.66201 44.5586 7.72369 45.1816 7.84824C45.7558 7.95864 46.3051 8.17382 46.8025 8.48314C47.2726 8.77627 47.661 9.1848 47.9314 9.67041C48.2308 10.2588 48.3755 10.9145 48.3518 11.5751C48.3815 12.4755 48.0932 13.3573 47.5382 14.0639C46.9945 14.7327 46.218 15.1376 45.2089 15.2787L48.8122 21.3188H45.8964L42.7535 15.5369H40.9939V21.3251H38.5742V7.66411ZM42.8691 13.4523C43.2139 13.4523 43.5587 13.4375 43.9034 13.4036C44.2295 13.377 44.5494 13.2992 44.8516 13.173C45.1321 13.0561 45.3746 12.8626 45.5516 12.6143C45.7491 12.2986 45.8432 11.9285 45.8207 11.5561C45.8366 11.2163 45.7494 10.8796 45.5705 10.591C45.4089 10.3497 45.183 10.159 44.9188 10.0408C44.6361 9.91389 44.3353 9.83248 44.0275 9.79951C43.7128 9.76206 43.3962 9.74298 43.0794 9.74237H40.9939V13.446L42.8691 13.4523Z" fill="#0066CC"/>
<path id="Vector_2" d="M53.5255 7.66406H62.5148V9.86295H55.941V13.2216H62.17V15.4205H55.941V19.1262H62.8575V21.3251H53.5234L53.5255 7.66406Z" fill="#0066CC"/>
<path id="Vector_3" d="M74.9741 10.5968C74.7213 10.226 74.364 9.93995 73.9482 9.77561C73.5187 9.60466 73.0603 9.51913 72.5985 9.52377C72.3238 9.52368 72.05 9.55636 71.7829 9.62112C71.5302 9.68064 71.2903 9.78529 71.0744 9.9301C70.8637 10.0701 70.6893 10.2588 70.5656 10.4804C70.4327 10.7253 70.3666 11.0013 70.3743 11.2803C70.363 11.4826 70.4006 11.6847 70.4841 11.869C70.5677 12.0534 70.6945 12.2145 70.8537 12.3385C71.217 12.6068 71.6171 12.8206 72.0414 12.9734C72.5151 13.1554 73.033 13.329 73.595 13.494C74.1401 13.6523 74.6618 13.8829 75.1465 14.1797C75.6238 14.4796 76.03 14.8813 76.3363 15.3564C76.681 15.9454 76.8475 16.6228 76.8157 17.3056C76.8308 17.9683 76.6926 18.6254 76.412 19.2251C76.1572 19.7548 75.7872 20.2199 75.3294 20.5859C74.8583 20.9546 74.3217 21.2297 73.7485 21.3965C73.134 21.5776 72.4967 21.6681 71.8564 21.6653C71.0267 21.6672 70.203 21.524 69.422 21.242C68.637 20.9547 67.9424 20.4616 67.4102 19.8134L69.2307 18.0378C69.519 18.4866 69.9191 18.8514 70.3912 19.096C70.8559 19.3422 71.3733 19.4707 71.8985 19.4706C72.1827 19.4701 72.4656 19.431 72.7394 19.3542C73.0116 19.2813 73.2701 19.1641 73.5046 19.0071C73.7379 18.8562 73.9329 18.6526 74.0743 18.4124C74.2166 18.1635 74.2892 17.8805 74.2845 17.5934C74.2976 17.3761 74.2611 17.1587 74.1781 16.9577C74.095 16.7568 73.9675 16.5775 73.8052 16.4336C73.4486 16.1427 73.0474 15.9119 72.6175 15.7501C72.1381 15.5695 71.6182 15.3987 71.0576 15.2379C70.513 15.0781 69.9915 14.8476 69.5061 14.5522C69.031 14.256 68.6273 13.8569 68.3246 13.384C68.0051 12.9015 67.8453 12.2553 67.8453 11.4454C67.8291 10.807 67.9783 10.1753 68.2784 9.61265C68.5575 9.10691 68.9436 8.66908 69.4094 8.33015C69.8923 7.98008 70.4344 7.72121 71.0092 7.56614C71.6085 7.40033 72.2272 7.31633 72.8487 7.31641C73.5545 7.31528 74.2562 7.42597 74.9278 7.64445C75.6021 7.86539 76.219 8.23483 76.7337 8.7259L74.9741 10.5968Z" fill="#0066CC"/>
<path id="Vector_4" d="M83.9218 16.2359V21.3152H81.5547V7.60547H86.7662C88.2882 7.60547 89.497 8.00475 90.3926 8.80332C91.2881 9.60189 91.7359 10.6601 91.7359 11.9778C91.7359 13.3238 91.2979 14.3707 90.422 15.1185C89.5461 15.8663 88.3183 16.2402 86.7389 16.2402L83.9218 16.2359ZM83.9218 14.3143H86.7662C87.6071 14.3143 88.2497 14.1146 88.694 13.7154C89.1382 13.3161 89.3597 12.7397 89.3583 11.9863C89.374 11.6596 89.3224 11.3332 89.2066 11.0276C89.0908 10.722 88.9134 10.4438 88.6855 10.2107C88.2357 9.76767 87.6155 9.5384 86.825 9.52288H83.9218V14.3143Z" fill="#0066CC"/>
<path id="Vector_5" d="M96.5984 14.5524C96.5845 13.5327 96.7673 12.52 97.1366 11.5704C97.4698 10.7139 97.9751 9.93576 98.6208 9.28478C99.267 8.64812 100.037 8.15309 100.883 7.83085C101.805 7.48337 102.783 7.31045 103.767 7.32081C104.759 7.29626 105.747 7.45625 106.681 7.79276C107.534 8.10305 108.312 8.59376 108.962 9.23187C109.612 9.87744 110.121 10.6523 110.456 11.5069C110.827 12.452 111.012 13.4603 111.001 14.4762C111.013 15.4731 110.831 16.4626 110.463 17.3883C110.124 18.2362 109.615 19.0049 108.968 19.6464C108.314 20.2886 107.538 20.7923 106.687 21.1279C105.758 21.4902 104.77 21.676 103.773 21.676C102.787 21.6878 101.806 21.5141 100.883 21.1638C100.036 20.8457 99.2658 20.3525 98.6206 19.7161C97.9753 19.0796 97.4698 18.314 97.1366 17.4687C96.7676 16.5419 96.5847 15.5507 96.5984 14.5524ZM99.1211 14.3979C99.1138 15.0875 99.2269 15.773 99.4554 16.4232C99.6642 17.015 99.9872 17.5595 100.406 18.0253C100.818 18.4765 101.319 18.8368 101.877 19.0835C102.479 19.3475 103.13 19.4795 103.786 19.4708C104.445 19.4796 105.098 19.3484 105.703 19.0856C106.262 18.8398 106.763 18.4794 107.175 18.0274C107.593 17.562 107.916 17.0174 108.123 16.4253C108.353 15.7755 108.467 15.0898 108.459 14.4C108.464 13.7497 108.35 13.1041 108.123 12.4953C107.91 11.9204 107.588 11.3927 107.175 10.9419C106.762 10.4954 106.26 10.1408 105.703 9.90064C105.097 9.64368 104.444 9.51543 103.786 9.52393C103.131 9.51518 102.482 9.64346 101.879 9.90064C101.323 10.1418 100.822 10.4963 100.408 10.9419C99.9976 11.3912 99.6772 11.9157 99.4638 12.4868C99.2384 13.096 99.1251 13.7415 99.1295 14.3915L99.1211 14.3979Z" fill="#0066CC"/>
<path id="Vector_6" d="M115.883 7.66406H119.085L125.658 17.8225H125.698V7.66406H128.112V21.3251H125.047L118.336 10.847H118.298V21.3251H115.883V7.66406Z" fill="#0066CC"/>
<path id="Vector_7" d="M132.961 7.66406H138.309C139.189 7.66405 140.063 7.80698 140.897 8.08733C141.709 8.35589 142.459 8.78791 143.1 9.35714C143.756 9.94537 144.279 10.6676 144.635 11.4756C145.037 12.4299 145.232 13.4594 145.209 14.4956C145.241 15.4822 145.043 16.4626 144.632 17.3588C144.221 18.255 143.608 19.0421 142.842 19.6574C142.153 20.2131 141.369 20.6377 140.529 20.9103C139.722 21.183 138.878 21.3259 138.027 21.3335H132.961V7.66406ZM137.178 19.1262C137.898 19.1302 138.616 19.0428 139.314 18.8659C139.942 18.7101 140.535 18.435 141.061 18.0553C141.564 17.6833 141.969 17.1928 142.24 16.6268C142.544 15.9591 142.692 15.2299 142.671 14.4956C142.688 13.7711 142.557 13.0508 142.287 12.3793C142.055 11.8187 141.69 11.3244 141.223 10.9402C140.746 10.5631 140.198 10.2873 139.612 10.1296C138.947 9.95005 138.26 9.86248 137.571 9.8693H135.385V19.1262H137.178Z" fill="#0066CC"/>
<path id="Vector_8" d="M150.082 7.66406H159.071V9.86295H152.498V13.2216H158.718V15.4205H152.498V19.1262H159.416V21.3251H150.082V7.66406Z" fill="#0066CC"/>
<path id="Vector_9" d="M164.242 7.66406H167.444L174.018 17.8225H174.056V7.66406H176.471V21.3251H173.404L166.696 10.847H166.658V21.3251H164.242V7.66406Z" fill="#0066CC"/>
<path id="Vector_10" d="M185.42 9.86295H181.266V7.66406H192V9.86295H187.839V21.3251H185.42V9.86295Z" fill="#0066CC"/>
<path id="Vector_11" d="M8.28516 8.28205C8.28331 9.65866 8.74945 10.9945 9.60612 12.0675C10.4628 13.1405 11.6584 13.886 12.9942 14.1803V2.39648C11.6601 2.68957 10.4657 3.43308 9.60914 4.50363C8.75259 5.57418 8.28542 6.90741 8.28516 8.28205Z" fill="#0066CC"/>
<path id="Vector_12" d="M3.84375 23.4707C6.0932 26.3795 9.37312 28.2997 12.997 28.8293V16.9629C11.0484 17.1776 9.18606 17.8875 7.58491 19.0259C5.98376 20.1643 4.69638 21.6938 3.84375 23.4707Z" fill="#0066CC"/>
<path id="Vector_13" d="M9.96822 15.0894C7.83232 13.644 6.26825 11.0832 6.26825 8.29806C6.26716 6.75476 6.70721 5.24374 7.53586 3.94533C8.36452 2.64692 9.54679 1.61597 10.9416 0.975498C11.3776 0.838817 11.8203 0.725086 12.2681 0.634766C10.1207 1.05228 8.09793 1.96306 6.35732 3.29621C4.61671 4.62935 3.20518 6.34889 2.23262 8.32098C1.26005 10.2931 0.752685 12.4645 0.750011 14.6663C0.747336 16.868 1.24942 19.0407 2.2172 21.0152C3.95156 18.2491 6.82324 16.1434 9.96822 15.0894Z" fill="#0066CC"/>
<path id="Vector_14" d="M8.28516 8.28205C8.28331 9.65866 8.74945 10.9945 9.60612 12.0675C10.4628 13.1405 11.6584 13.886 12.9942 14.1803V2.39648C11.6601 2.68957 10.4657 3.43308 9.60914 4.50363C8.75259 5.57418 8.28542 6.90741 8.28516 8.28205Z" fill="#0066CC"/>
<path id="Vector_15" d="M12.996 16.9629C11.036 17.1778 9.16132 17.8859 7.54476 19.0222C5.9282 20.1584 4.62182 21.6861 3.74609 23.4643C6.01291 26.4073 9.33217 28.3424 12.996 28.8568V16.9629Z" fill="#0066CC"/>
<path id="Vector_16" d="M14.9609 28.9945C15.6116 29.0035 16.2619 28.9596 16.9055 28.8633C16.2612 28.9541 15.6115 29.0001 14.9609 29.0009V28.9945Z" fill="#0066CC"/>
<path id="Vector_17" d="M26.1235 23.5512C26.3337 23.2887 26.5208 23.0156 26.7058 22.7383C26.5208 23.0135 26.3232 23.2802 26.1172 23.5406L26.1235 23.5512Z" fill="#0066CC"/>
<path id="Vector_18" d="M26.9263 22.3945C26.8695 22.4834 26.8128 22.5745 26.7539 22.6634C26.8128 22.5745 26.8695 22.4856 26.9263 22.3945Z" fill="#0066CC"/>
<path id="Vector_19" d="M14.9531 0.38314C15.1634 0.38314 15.3736 0.38314 15.5838 0.400075C15.3736 0.400075 15.1634 0.381023 14.9531 0.378906V0.38314Z" fill="#0066CC"/>
<path id="Vector_20" d="M29.1823 14.6881C29.1817 11.4373 28.0818 8.28355 26.0636 5.74593C24.0453 3.20831 21.229 1.43806 18.0781 0.726562C20.2315 1.21397 22.2425 2.1996 23.9517 3.60533C25.6609 5.01106 27.0215 6.79826 27.9254 8.82527C28.8293 10.8523 29.2519 13.0634 29.1595 15.2834C29.0671 17.5033 28.4624 19.6711 27.3932 21.6149V21.6276C28.5678 19.5059 29.1836 17.117 29.1823 14.6881Z" fill="#0066CC"/>
<path id="Vector_21" d="M18.0792 0.73152L18.0666 0.746335C17.6854 0.657448 17.2992 0.586903 16.9082 0.5347C16.6076 0.481791 16.3007 0.450046 15.9958 0.422533H15.8823L15.5838 0.405603C15.3736 0.405603 15.1634 0.388672 14.9531 0.388672V28.9932C15.6037 28.9925 16.2534 28.9465 16.8977 28.8557V16.9724C18.8574 17.1985 20.7289 17.9182 22.3394 19.0648C23.9498 20.2115 25.2473 21.7482 26.1119 23.533C26.3221 23.2727 26.5155 23.0061 26.7005 22.731C26.7174 22.7056 26.7363 22.6823 26.751 22.6569C26.8099 22.568 26.8666 22.477 26.9234 22.3881C27.0832 22.1341 27.2387 21.8759 27.3817 21.6114C28.4492 19.6688 29.053 17.5027 29.1452 15.2845C29.2375 13.0664 28.8156 10.857 27.9132 8.83137C27.0107 6.8057 25.6523 5.01926 23.9455 3.61342C22.2386 2.20759 20.2302 1.22093 18.0792 0.73152ZM16.904 14.4285V14.1788L16.7863 2.11561C18.1869 2.42407 19.4407 3.2053 20.3397 4.3297C21.2386 5.45411 21.7287 6.8541 21.7287 8.29746C21.7266 11.3238 19.7295 13.8105 16.904 14.4285Z" fill="#0066CC"/>
</g>
</svg>
