<?xml version="1.0" encoding="UTF-8"?><svg id="uuid-59f779ea-7f72-4ae0-ad8a-94a01b9bff04" xmlns="http://www.w3.org/2000/svg" viewBox="0 0 842.1 246.82"><defs><style>.uuid-4f86f469-322c-44e1-83dc-e0f9157eb4a9{fill:#adb6be;}.uuid-9278de95-c43f-4637-9ce2-6faebd67a9e6{fill:#1a1e22;}</style></defs><path class="uuid-9278de95-c43f-4637-9ce2-6faebd67a9e6" d="M171,149c12.58,17.19,24.49,33.45,36.39,49.71,8.94,12.21,17.89,24.41,26.83,36.63,1.3,1.78,2.77,3.48,3.8,5.41,2.07,3.88,.99,5.89-3.42,5.96-9.46,.15-18.93,.17-28.39-.02-6.71-.13-10.7-4.7-14.33-9.63-16.44-22.36-32.88-44.71-49.32-67.06-3.55-4.83-7.28-9.53-10.57-14.53-2.34-3.55-5.15-4.84-9.41-4.75-12.93,.28-25.87,.14-38.8,.16-2.84,0-5.69,.14-8.52-.05-5.15-.35-6.46-1.97-4.51-6.45,3.01-6.93,6.62-13.59,9.81-20.44,2.34-5.02,6.71-5.06,11.21-5.06,16.09,0,32.18,0,48.27-.01,2.84,0,5.68,.08,8.52-.06,25.22-1.24,43.11-19.47,42.86-43.62-.25-23.6-19.32-42.02-44.34-42.22-30.29-.25-60.58-.06-90.86-.07-4.1,0-8.2-.05-12.3,.01-6.95,.1-6.95,.13-7.09,7.45-.04,1.89,0,3.78,0,5.68,0,60.24,0,120.48,0,180.72,0,2.52,.05,5.05-.02,7.57-.25,9.87-2.42,11.99-12.54,12.15-4.73,.07-9.47,.18-14.2-.04-7.05-.32-9.56-2.89-9.99-9.78-.12-1.89-.03-3.78-.03-5.68,0-71.6,0-143.19,0-214.79,0-2.21-.12-4.43,.06-6.62C.61,3.07,3.06,.24,9.51,.24c50.16-.02,100.35-.81,150.48,.59,34.5,.96,65.08,33.59,67.18,68.18,2.18,36.03-16.92,65.23-50.87,77.79-1.47,.54-2.89,1.2-5.29,2.2Z"/><path class="uuid-9278de95-c43f-4637-9ce2-6faebd67a9e6" d="M327.67,122.59c0-35.32,0-70.64,0-105.96,0-2.52-.16-5.06,.08-7.56,.58-5.93,3.08-8.34,8.94-8.88,1.25-.12,2.52-.04,3.78-.04,46.37,0,92.75,.38,139.12-.1,36.03-.37,67.41,25.77,74.01,60.89,9.63,51.23-30.75,88.89-70.65,89.28-25.87,.25-51.74,.12-77.61,.05-8.18-.02-8.84-1.22-5.31-8.85,2.38-5.15,5.19-10.11,7.37-15.33,2.39-5.73,6.31-7.99,12.49-7.91,17.66,.23,35.33,.02,53,.1,6.05,.03,11.95-.63,17.65-2.71,18.1-6.6,29.79-23.09,29.18-41.14-.61-18.43-13.72-34.44-32.47-39.61-5.19-1.43-10.48-1.97-15.9-1.96-32.49,.09-64.99,.02-97.48,.05-9.67,.01-9.25-1.36-9.26,9,0,62.44,0,124.89,0,187.33,0,16.21-1.03,17.24-17.04,17.25-3.15,0-6.31,.11-9.46-.03-7.57-.34-10.14-2.83-10.42-10.32-.19-5.04-.04-10.09-.05-15.14,0-32.8,0-65.6,0-98.39Z"/><path class="uuid-4f86f469-322c-44e1-83dc-e0f9157eb4a9" d="M704.91,30.48c-5.28,5.6-6.57,11.61-9.17,16.89-21.29,43.27-42.47,86.58-63.65,129.9-9.83,20.1-19.81,40.13-29.19,60.44-3.11,6.74-7.14,9.68-14.54,8.91-5.31-.56-10.73,.11-16.07-.2-5.74-.33-7.01-2.64-4.92-8.11,.56-1.47,1.36-2.84,2.06-4.26,27.6-55.96,55.23-111.92,82.8-167.9,8.63-17.53,17.26-35.06,25.6-52.72,4.37-9.25,10.56-14.58,21.43-13.09,4.03,.55,8.23,.45,12.28,.02,8.94-.94,14.22,3.63,17.89,11.01,2.95,5.93,5.91,11.85,8.84,17.78,31.13,63.02,62.26,126.03,93.36,189.06,3.2,6.49,6.34,13.03,9.23,19.67,2.57,5.91,1.16,8.29-5.17,8.54-6.93,.28-13.89-.17-20.82,.16-5.53,.26-8.79-2.07-11.05-6.95-5.96-12.86-12.5-25.47-18.15-38.46-3.01-6.91-6.82-9.71-14.8-9.58-32.8,.54-65.62,.23-98.43,.23-2.21,0-4.42,.06-6.62-.02-7.54-.26-8.21-1.38-5.01-8.45,2.21-4.88,4.73-9.62,6.72-14.58,2.33-5.81,6.32-7.79,12.51-7.72,23.66,.26,47.32,.11,70.98,.09,15.2-.01,15.09-.02,8.8-13.45-16.69-35.67-33.22-71.4-49.84-107.1-1.45-3.12-3.09-6.15-5.09-10.11Z"/></svg>